<?xml version="1.0" encoding="UTF-8" standalone="no"?>
<!-- Created with Inkscape (http://www.inkscape.org/) -->

<svg
   width="250mm"
   height="100mm"
   viewBox="0 0 250 100"
   version="1.1"
   id="svg5"
   inkscape:version="1.3.2 (091e20e, 2023-11-25)"
   sodipodi:docname="antisaccades.svg"
   xmlns:inkscape="http://www.inkscape.org/namespaces/inkscape"
   xmlns:sodipodi="http://sodipodi.sourceforge.net/DTD/sodipodi-0.dtd"
   xmlns="http://www.w3.org/2000/svg"
   xmlns:svg="http://www.w3.org/2000/svg">
  <sodipodi:namedview
     id="namedview7"
     pagecolor="#ffffff"
     bordercolor="#666666"
     borderopacity="1.0"
     inkscape:pageshadow="2"
     inkscape:pageopacity="0.0"
     inkscape:pagecheckerboard="0"
     inkscape:document-units="mm"
     showgrid="false"
     inkscape:zoom="0.74742565"
     inkscape:cx="416.0949"
     inkscape:cy="469.61193"
     inkscape:window-width="1728"
     inkscape:window-height="1027"
     inkscape:window-x="0"
     inkscape:window-y="38"
     inkscape:window-maximized="0"
     inkscape:current-layer="layer1"
     inkscape:showpageshadow="2"
     inkscape:deskcolor="#d1d1d1" />
  <defs
     id="defs2" />
  <g
     inkscape:label="Layer 1"
     inkscape:groupmode="layer"
     id="layer1">
    <path
       id="path1281"
       style="fill:none;stroke:#000000;stroke-width:1.065;stroke-linecap:butt;stroke-linejoin:miter;stroke-miterlimit:4;stroke-dasharray:none;stroke-opacity:1"
       d="m 173.869,21.891176 c -1.14988,2.86429 2.69182,1.41634 3.10695,2.80988 0.36901,1.23874 1.28369,2.50178 1.6978,3.77426 0.16279,0.50025 -0.10331,1.25343 0,1.76997 0.92525,4.62627 0.91825,8.78766 0.91825,13.66662 0,1.73377 -0.34288,3.87193 0,5.58632 0.18716,0.93581 0.54939,1.83537 0.70799,2.77393 0.0978,0.57882 -0.11487,1.1854 0,1.76109 0.29435,1.475148 1.06054,2.819702 1.42245,4.267354 0.14309,0.572373 -0.097,1.188003 0,1.769965 0.16872,1.012311 0.59873,2.159553 0.70159,3.139709 0.003,0.02508 -0.17753,2.808981 0,3.602133 0.35717,1.59575 0.89933,3.140676 1.2089,4.688515 0.2215,1.107516 -0.2774,2.39623 0,3.489457 0.29051,1.144894 0.0615,2.389418 0.34561,3.52584 0.4061,1.624417 0.35399,0.08544 0.35399,1.057561 0,0.480607 -0.41269,1.195514 0,1.441823 3.90742,2.332056 8.63359,1.675913 13.17613,1.675913 0.676,0 3.58017,0.384458 4.09278,0 1.21462,-0.910971 2.21993,-5.056066 3.16917,-6.321713 0.15831,-0.21108 0.52083,-0.168005 0.70798,-0.353992 0.0765,-0.07604 0.18893,-0.842515 0.28641,-0.922361 0.68422,-0.560464 0.84696,-1.050899 1.26101,-2.293056 0.10554,-0.316622 0.52286,-0.430292 0.70799,-0.707986 0.84509,-1.267637 1.6386,-3.162011 2.12396,-4.601908 0.74211,-2.201601 0.93185,-4.685229 1.39972,-7.013538 0.13706,-0.682048 -0.30492,-1.828289 0,-2.443909 0.57624,-1.163383 1.04893,-5.771707 1.04893,-7.401117 0,-0.78341 -0.0521,0.14223 0.3495,-1.04868 0.0367,-0.1088 -0.0862,-0.94229 0,-0.98534 0.30674,-0.15329 3.89026,-0.24973 4.51583,-0.35399 1.98643,-0.33108 0.79453,-0.28713 2.47795,-0.70799 2.11026,-0.52756 7.70837,-0.0222 9.58926,0.35399 0.34164,0.0683 0.7325,-0.15359 1.04522,0 0.85477,0.41984 1.78024,0.33844 2.8035,0.67953 1.81133,0.60378 3.96776,1.19105 5.53833,2.11294 0.8383,0.49208 3.10914,0 4.08275,0 M 7.3064769,49.284756 c 1.631673,-0.0473 2.9914171,-0.15057 4.5051111,0.354 1.673267,0.55775 3.476506,0.7779 5.054079,1.56669 0.338955,0.16948 1.212236,1.28447 1.75674,1.05755 0.817518,-0.3407 1.919711,-1.47459 2.710344,-1.67225 1.818664,-0.45467 5.418966,-1.21658 7.446987,-0.70799 1.662729,0.41698 2.894822,3.77764 4.79204,2.83194 0.62543,-0.31175 0.937739,-1.09711 1.396352,-1.40285 0.711631,-0.47442 5.243468,-0.93367 6.371873,-0.70799 3.96593,0.79319 2.978566,4.47785 3.450826,7.311402 0.143152,0.858917 0.54447,1.660372 0.707985,2.47795 0.155982,0.779915 -0.193154,1.705335 0,2.47795 0.335375,1.341498 0.813967,2.383912 1.409404,3.526867 0.186144,0.357312 -0.126744,0.963895 0,1.354037 0.01654,0.05087 0.659458,1.300257 0.668401,1.336765 0.205613,0.839184 0.218231,1.8885 0.602289,2.614887 0.214794,0.406249 0.814253,0.613222 1.02257,1.022549 0.05164,0.10147 -0.09873,0.284855 0,0.341569 0.358362,0.205864 9.451464,0.539395 10.292326,0.539395 0.959842,0 2.527665,-0.297828 3.396464,0 1.364316,0.467691 2.510425,2.21129 3.170724,3.086796 0.183885,0.243816 1.70135,0 2.079276,0 0.40223,0 1.173682,0.155549 1.534462,0 4.45686,-1.921589 2.55553,-2.204051 3.90766,-6.277356 0.16963,-0.511013 -0.17026,-1.191329 0,-1.702099 0.2434,-0.730197 0.87559,-1.378421 1.06198,-2.123958 1.20121,-4.804831 1.64114,-9.911385 2.19033,-14.854054 0.56253,-5.06277 -0.87188,-10.58145 0.35399,-15.48495 0.69307,-2.77225 -0.69306,-6.06431 0,-8.83656 0.064,-0.25597 0.236,-0.47199 0.35399,-0.70798 0.118,-0.354 0.28082,-0.69609 0.354,-1.06198 0.32121,-1.60607 0.29732,-7.32097 1.37267,-8.03787 0.71182,-0.47455 1.31556,-0.35399 2.12396,-0.35399 0.73336,0 1.744316,-0.2199 2.404046,0 2.5297,0.8432 3.3698,3.71785 6.53556,2.7079 0.8008,-0.25547 1.39756,-0.66055 2.23069,-0.93629 0.34127,-0.11296 8.810884,0.0944 9.360154,0.2794 1.39688,0.47041 2.83095,2.07963 3.34521,3.10835 0.32819,0.65651 -0.11849,2.12169 0,2.83264 0.31483,1.88897 0.354,3.71211 0.354,5.66388 0,2.86993 -0.1728,5.38226 -0.692,8.08316 -0.49726,2.58675 0.14179,5.37703 -0.73236,7.89935 -0.30931,0.89251 0.42798,2.39761 0,3.23597 -0.55235,1.08199 -0.62443,6.620958 -0.34163,8.034952 0.16294,0.814718 0.70786,1.428173 1.06198,2.123958 0.16031,0.314997 0.41778,2.247361 0.64446,2.671982 0.52961,0.992079 1.47944,2.037043 1.76556,3.181507 0.78628,3.145141 0.64106,6.332931 2.2395,8.35284 0.0234,0.02956 0.4814,2.669561 0.8919,2.920515 2.58171,1.578325 6.45922,0.947651 9.55815,0.947651 2.70165,0 12.63127,0.780499 14.96519,-0.67803 0.63202,-0.394964 0.3571,-2.652654 0.62605,-2.939833 0.0746,-0.07965 0.24075,0.06637 0.32738,0 0.39503,-0.30263 1.59711,-5.487482 1.76556,-6.161264 0.21946,-0.877861 0.87634,-1.549779 1.06197,-2.47795 1.01085,-5.054232 2.51364,-10.107705 3.53111,-15.195108 0.36147,-1.80731 -0.22887,-3.83286 0,-5.6639 0.41302,-3.3041 0.70799,-6.6124 0.70799,-9.95745 0,-1.20353 -0.41953,-6.20624 0,-7.04541 0.59692,-1.194 1.10403,-2.61036 1.38702,-3.7405 0.0826,-0.32982 -0.15207,-0.7159 0,-1.02 0.31358,-0.62708 0.89152,-1.69234 1.0453,-2.46123 0.0694,-0.34712 -0.11066,-0.72572 0,-1.06198 0.0364,-0.11066 0.25485,0.0679 0.3495,0 0.1336,-0.0959 0.30172,-0.69642 0.60704,-0.85782 2.04478,-1.08092 4.19054,-1.78538 6.60297,-1.37006 1.46465,0.25216 2.49865,0.47582 3.66256,1.03204 1.24846,0.59662 3.65582,-0.0716 4.89402,0.35399 0.89094,0.30626 0.58698,0.54296 1.72425,0.68513 1.49802,0.18725 3.11292,-0.24817 4.60191,0 2.56158,0.42692 -0.55651,0.16848 1.06198,0.70798 0.93135,0.31045 1.69717,0.0118 2.36594,0.67359 0.28179,0.27883 1.51381,-0.1689 1.85474,0 0.29907,0.14815 0.4456,0.50174 0.70799,0.70799" />
  </g>
</svg>
