<?xml version="1.0" encoding="UTF-8" standalone="no"?>
<!-- Created with Inkscape (http://www.inkscape.org/) -->

<svg
   width="250mm"
   height="100mm"
   viewBox="0 0 250 100"
   version="1.1"
   id="svg5"
   inkscape:version="1.1.2 (0a00cf5339, 2022-02-04)"
   sodipodi:docname="pursuit.svg"
   xmlns:inkscape="http://www.inkscape.org/namespaces/inkscape"
   xmlns:sodipodi="http://sodipodi.sourceforge.net/DTD/sodipodi-0.dtd"
   xmlns="http://www.w3.org/2000/svg"
   xmlns:svg="http://www.w3.org/2000/svg">
  <sodipodi:namedview
     id="namedview7"
     pagecolor="#ffffff"
     bordercolor="#666666"
     borderopacity="1.0"
     inkscape:pageshadow="2"
     inkscape:pageopacity="0.0"
     inkscape:pagecheckerboard="0"
     inkscape:document-units="mm"
     showgrid="false"
     inkscape:zoom="0.74742565"
     inkscape:cx="528.48066"
     inkscape:cy="469.61193"
     inkscape:window-width="1904"
     inkscape:window-height="1027"
     inkscape:window-x="1928"
     inkscape:window-y="8"
     inkscape:window-maximized="0"
     inkscape:current-layer="layer1" />
  <defs
     id="defs2" />
  <g
     inkscape:label="Layer 1"
     inkscape:groupmode="layer"
     id="layer1">
    <path
       style="fill:none;stroke:#000000;stroke-width:1.065;stroke-linecap:butt;stroke-linejoin:miter;stroke-miterlimit:4;stroke-dasharray:none;stroke-opacity:1"
       d="m 4.9235829,48.31165 c 1.2886971,0 2.5773951,0 3.8660931,0 1.432893,0 2.575201,-0.1255 3.946122,-0.35399 1.461827,-0.24364 6.659029,0.49492 7.583108,0 0.775279,-0.41523 1.581425,-0.58964 2.36456,-0.9829 0.257122,-0.12912 0.697367,0.11942 0.959911,0 0.784457,-0.35682 1.30036,-0.93617 2.054645,-1.3216 1.988355,-1.01601 5.764644,-11.8346 7.018928,-14.38115 0.322098,-0.65395 0.992931,-1.01683 1.370253,-1.38704 0.08142,-0.0799 0.213476,-0.8328 0.30793,-0.90858 1.488395,-1.19415 3.631242,-3.13252 5.381106,-4.43027 1.629119,-1.20819 4.12954,-1.44873 5.869919,-2.3807 0.777473,-0.41633 9.184984,0 10.936962,0 0.06992,0 1.956197,-0.1515 2.104165,0 0.0797,0.0816 -0.08151,0.26241 0,0.3422 0.384786,0.37665 2.502511,-0.16563 2.998743,0 0.399587,0.13337 0.671094,0.52008 1.05152,0.70101 2.053619,0.97666 3.896048,1.68714 5.841143,2.76969 1.625176,0.9045 3.151978,2.49349 4.656613,3.59464 0.982454,0.71899 2.53329,1.40379 3.307792,2.17829 0.913702,0.9137 2.119359,8.24213 2.462909,9.95988 0.16998,0.8499 0.67283,2.36695 1.05014,3.15052 0.52889,1.09834 0.22623,-0.78205 0.68275,1.01146 0.38837,1.52575 1.03407,2.72031 1.41597,4.24792 -0.21336,0.6407 0.57345,0.65836 0.70799,1.06198 0.14926,0.44777 -0.11195,0.95744 0,1.41597 0.0597,0.24464 0.22522,0.45048 0.33783,0.67572 0.1541,0.69438 0.36271,1.37886 0.46228,2.08313 0.38475,2.72138 0.79537,5.52406 1.05654,8.25023 0.11277,1.17716 -0.28926,3.50867 0.35399,4.70581 0.51196,0.95279 1.76173,1.41834 2.46127,2.10723 0.17952,0.17679 0.15728,0.50052 0.338,0.67608 1.13335,1.10094 5.28483,3.41805 6.72431,3.89787 0.22389,0.0746 0.49635,-0.10442 0.70799,0 0.29151,0.14384 0.39857,0.54471 0.68958,0.68958 1.94641,0.96902 4.124705,1.33083 6.136625,1.83381 0.25598,0.064 0.472,0.236 0.708,0.35399 0.35399,0.118 0.69753,0.27388 1.06198,0.354 3.78803,0.8327 7.77246,1.19781 11.64227,1.19781 1.24971,0 3.9147,0.40914 5.17819,0 9.08872,-2.94309 11.91941,-8.17833 15.52106,-16.58218 0.79036,-1.84416 0.0417,-0.95827 0.35399,-2.83194 0.32617,-1.95703 1.02574,-4.0667 1.41597,-6.01788 0.38752,-1.9376 -0.0365,-4.05213 0.354,-6.0047 0.0749,-0.37462 0.25314,-1.32593 0.35399,-1.71979 0.19612,-0.76595 0.8702,-1.00287 1.06198,-1.76997 0.43662,-1.7465 0.62514,-3.56256 1.06198,-5.30989 -0.23633,-0.63926 0.55485,-0.6432 0.68275,-1.03672 0.26558,-0.81713 0.44776,-1.67204 0.70798,-2.45272 0.21517,-0.64551 0.86264,-1.33665 1.05014,-2.08666 0.6694,-2.67757 1.76479,-4.86751 3.01378,-7.32949 0.10157,-0.20022 -0.15104,-0.50742 0,-0.67353 0.71992,-0.7917 2.05386,-2.28127 2.90998,-3.40703 0.2679,-0.35226 1.85045,-0.81901 2.26622,-1.03223 0.24502,-0.12565 0.31,-0.55809 0.58413,-0.58411 2.36521,-0.2245 4.89019,0 7.27492,0 1.68528,0 3.98659,-0.41863 5.65058,0 0.84663,0.21299 1.634,0.89769 2.48555,1.068 1.20156,0.24032 0.88006,-0.33696 1.80134,0.354 1.30329,0.97747 10.2785,8.63115 10.73438,10.0157 0.21604,0.65614 0.10538,1.16446 0.69485,1.75026 0.83823,0.83301 0.5315,-0.0845 1.05541,0.70142 0.82559,1.23838 1.41712,2.49568 1.7634,3.88078 0.45302,1.8121 1.80792,3.41372 2.12395,5.3099 0.83701,5.02205 1.96275,10.84412 3.53993,15.57568 0.22733,0.68196 1.18865,1.44199 1.41597,2.12396 0.0746,0.22388 -0.0746,0.4841 0,0.70798 0.55025,1.65075 4.09829,4.85736 5.3099,6.37187 1.77091,2.21365 4.28191,6.25335 6.90424,7.29726 1.84069,0.73275 4.05122,-0.42359 5.62076,-1.06198 1.37602,-0.55967 2.79094,-0.74277 4.06513,-1.59223 6.67611,-4.45074 6.47204,-14.91174 8.18202,-21.75125 0.20935,-0.83736 0.62643,-7.58492 1.04167,-7.98078 3.55094,-3.38526 3.35891,-3.87956 9.33734,-4.73362 3.72728,-0.53247 10.7291,1.10552 13.77002,-0.47351"
       id="path1566" />
  </g>
</svg>
